<svg width="400" height="400" viewBox="0 0 400 400" fill="none" xmlns="http://www.w3.org/2000/svg">
<rect width="400" height="400" fill="white"/>
<path d="M238.373 303.571H120.835C119.464 303.571 118.514 302.201 118.996 300.916L133.523 262.176C133.742 261.593 134.224 261.148 134.823 260.977L207.062 240.337C207.616 240.179 208.073 239.785 208.311 239.261L233.581 183.668C234.027 182.686 235.182 182.248 236.168 182.686L280.239 202.273C281.217 202.708 281.668 203.845 281.252 204.831L240.184 302.368C239.877 303.097 239.163 303.571 238.373 303.571Z" fill="#13267F"/>
<path d="M161.627 97.2143H279.165C280.536 97.2143 281.486 98.5846 281.004 99.8692L266.477 138.609C266.258 139.192 265.776 139.637 265.177 139.809L192.938 160.448C192.384 160.606 191.927 161 191.689 161.524L166.419 217.117C165.973 218.099 164.818 218.537 163.832 218.099L119.761 198.512C118.783 198.077 118.332 196.94 118.748 195.954L159.816 98.4167C160.123 97.6881 160.837 97.2143 161.627 97.2143Z" fill="#13267F"/>
</svg>
